HIERARCHY
ROOT Hips
{
  OFFSET 53.3012 100.663 10.7751
  CHANNELS 6 Xposition Yposition Zposition Zrotation Xrotation Yrotation
  JOINT spine
  {
    OFFSET 0 8.81705 0.507024
    CHANNELS 3 Zrotation Xrotation Yrotation
    JOINT spine1
    {
      OFFSET 0 10.7766 0
      CHANNELS 3 Zrotation Xrotation Yrotation
      JOINT spine2
      {
        OFFSET 0 10.3259 0
        CHANNELS 3 Zrotation Xrotation Yrotation
        JOINT Neck
        {
          OFFSET 0 26.511 1.26395
          CHANNELS 3 Zrotation Xrotation Yrotation
          JOINT Head
          {
            OFFSET 0 8.00966 0
            CHANNELS 3 Zrotation Xrotation Yrotation
            End Site
            {
              OFFSET 0 19.3879 -6.39386
            }
          }
        }
        JOINT RightShoulder
        {
          OFFSET -4.34795 11.1512 -0.605422
          CHANNELS 3 Zrotation Xrotation Yrotation
          JOINT RightArm
          {
            OFFSET 0 14.6258 0
            CHANNELS 3 Zrotation Xrotation Yrotation
            JOINT RightArmRoll
            {
              OFFSET 0 7.3834 0
              CHANNELS 3 Zrotation Xrotation Yrotation
              JOINT RightForeArm
              {
                OFFSET 0 21.5052 0
                CHANNELS 3 Zrotation Xrotation Yrotation
                JOINT RightForeArmRoll
                {
                  OFFSET 0 8.28532 0
                  CHANNELS 3 Zrotation Xrotation Yrotation
                  JOINT RightHand
                  {
                    OFFSET 0 16.6268 0
                    CHANNELS 3 Zrotation Xrotation Yrotation
                    End Site
                    {
                      OFFSET 0 0 0
                    }
                  }
                }
              }
            }
          }
        }
        JOINT LeftShoulder
        {
          OFFSET 4.34795 11.1512 -0.605422
          CHANNELS 3 Zrotation Xrotation Yrotation
          JOINT LeftArm
          {
            OFFSET 0 14.6258 0
            CHANNELS 3 Zrotation Xrotation Yrotation
            JOINT LeftArmRoll
            {
              OFFSET 0 7.3834 0
              CHANNELS 3 Zrotation Xrotation Yrotation
              JOINT LeftForeArm
              {
                OFFSET 0 21.5052 0
                CHANNELS 3 Zrotation Xrotation Yrotation
                JOINT LeftForeArmRoll
                {
                  OFFSET 0 8.28532 0
                  CHANNELS 3 Zrotation Xrotation Yrotation
                  JOINT LeftHand
                  {
                    OFFSET 0 16.6268 0
                    CHANNELS 3 Zrotation Xrotation Yrotation
                    End Site
                    {
                      OFFSET 0 0 0
                    }
                  }
                }
              }
            }
          }
        }
      }
    }
  }
  JOINT RightUpLeg
  {
    OFFSET -7.8151 -1.43309 -1.20217
    CHANNELS 3 Zrotation Xrotation Yrotation
    JOINT RightUpLegRoll
    {
      OFFSET 0 19.4959 0
      CHANNELS 3 Zrotation Xrotation Yrotation
      JOINT RightLeg
      {
        OFFSET 0 -24.1427 0
        CHANNELS 3 Zrotation Xrotation Yrotation
        JOINT RightLegRoll
        {
          OFFSET 0 24.2217 0
          CHANNELS 3 Zrotation Xrotation Yrotation
          JOINT RightFoot
          {
            OFFSET 0 20.1605 0
            CHANNELS 3 Zrotation Xrotation Yrotation
            JOINT RightToeBase
            {
              OFFSET 0 16.8532 0
              CHANNELS 3 Zrotation Xrotation Yrotation
              End Site
              {
                OFFSET 0.00714343 8.16187 -0.940781
              }
            }
          }
        }
      }
    }
  }
  JOINT LeftUpLeg
  {
    OFFSET 7.8151 -1.43309 -1.20217
    CHANNELS 3 Zrotation Xrotation Yrotation
    JOINT LeftUpLegRoll
    {
      OFFSET 0 19.496 0
      CHANNELS 3 Zrotation Xrotation Yrotation
      JOINT LeftLeg
      {
        OFFSET 0 24.1426 0
        CHANNELS 3 Zrotation Xrotation Yrotation
        JOINT LeftLegRoll
        {
          OFFSET 0 24.4456 0
          CHANNELS 3 Zrotation Xrotation Yrotation
          JOINT LeftFoot
          {
            OFFSET 0 19.9366 0
            CHANNELS 3 Zrotation Xrotation Yrotation
            JOINT LeftToeBase
            {
              OFFSET 0 16.8532 0
              CHANNELS 3 Zrotation Xrotation Yrotation
              End Site
              {
                OFFSET -0.0320138 8.16187 -0.940781
              }
            }
          }
        }
      }
    }
  }
}
MOTION
Frames: 6
Frame Time: 0.00208333
53.2108 100.572 12.6289 0.126114 -3.68358 1.16285 0.26059 -2.48483 -0.137116 0.505542 -0.967549 -0.301729 0.509133 0.677481 -0.307742 -0.897502 16.7629 2.83828 -14.3387 -6.6236 0.214696 68.2929 -0.827896 -1.59577 119.341 27.5632 -61.5378 -2.4541e-005 1.36657e-006 -1.7361e-006 -109.958 81.8224 99.3803 1.52616e-005 3.06122e-006 -3 8.0289 -4.95145 0.697694 -58.7956 -4.44898 2.77863 -125.118 31.3403 51.511 -2.2756e-007 -3.46618e-008 7.9706e-007 109.184 86.0257 -100.619 6.31465e-007 -1.90741e-006 3.00222 -8.02887 -4.95146 -0.697696 176.422 -2.2767 0.709057 180 7.01521e-015 178.817 178.793 8.83903 179.654 -1.24761e-006 -4.95997e-006 0.200135 -20.6432 70.2117 21.5692 8.14602 25.3914 -3.2757 -175.545 -2.3291 1.09716 4.54188e-006 -4.6773e-006 -1.18856 -2.26415 -8.97557 0.153514 -4.09352e-007 -6.66686e-007 -0.180615 20.648 70.1541 -21.5388 -8.15589 25.5188 3.10077 
53.2098 100.574 12.6332 0.125654 -3.69688 1.16448 0.262547 -2.47609 -0.136672 0.50882 -0.950079 -0.303326 0.51244 0.694951 -0.309718 -1.00955 16.6525 2.8669 -14.24 -6.62396 0.230465 68.2422 -0.8056 -1.57918 119.262 27.4942 -61.2606 -2.4541e-005 1.36657e-006 -1.7361e-006 -110.968 81.6859 100.253 1.52616e-005 3.06122e-006 -3 8.0289 -4.95145 0.697694 -58.7833 -4.54 2.83373 -125.105 31.342 51.7917 -2.2756e-007 -3.46618e-008 7.9706e-007 110.453 85.9349 -101.798 6.31465e-007 -1.90741e-006 3.00222 -8.02887 -4.95146 -0.697696 176.395 -2.3202 0.75337 180 7.01521e-015 178.817 178.731 8.76651 179.662 -1.24761e-006 -4.95997e-006 0.195587 -20.5939 70.1605 21.5163 8.14621 25.3943 -3.27223 -175.547 -2.35486 1.10184 4.54188e-006 -4.6773e-006 -1.18859 -2.25838 -8.95099 0.153701 -4.09352e-007 -6.66686e-007 -0.180887 20.6337 70.1409 -21.5237 -8.15594 25.5195 3.09951 
53.2146 100.571 12.6331 0.125166 -3.71016 1.16633 0.264505 -2.46736 -0.136224 0.512109 -0.932623 -0.30489 0.515758 0.712405 -0.311668 -1.12062 16.5464 2.8951 -14.142 -6.63128 0.24508 68.1854 -0.786129 -1.56344 119.187 27.4251 -60.9817 -2.4541e-005 1.36657e-006 -1.7361e-006 -111.94 81.5496 101.089 1.52616e-005 3.06122e-006 -3 8.0289 -4.95145 0.697694 -58.7675 -4.63256 2.88961 -125.096 31.3456 52.0601 -2.2756e-007 -3.46618e-008 7.9706e-007 111.582 85.8475 -102.843 6.31465e-007 -1.90741e-006 3.00222 -8.02887 -4.95146 -0.697696 176.368 -2.36459 0.798586 180 7.01521e-015 178.817 178.668 8.69192 179.67 -1.24761e-006 -4.95997e-006 0.19094 -20.5436 70.1079 21.4623 8.14642 25.3973 -3.26864 -175.549 -2.38111 1.10652 4.54188e-006 -4.6773e-006 -1.18863 -2.25259 -8.9253 0.153888 -4.09352e-007 -6.66686e-007 -0.181154 20.6188 70.127 -21.5079 -8.15599 25.5203 3.09822 
53.2087 100.573 12.6375 0.1246 -3.72327 1.16842 0.266433 -2.45878 -0.13578 0.515361 -0.915479 -0.306373 0.519037 0.729548 -0.313537 -1.22887 16.4467 2.9225 -14.0464 -6.64636 0.258189 68.1241 -0.769507 -1.5487 119.116 27.3566 -60.7026 -2.4541e-005 1.36657e-006 -1.7361e-006 -112.87 81.4149 101.887 1.52616e-005 3.06122e-006 -3 8.0289 -4.95145 0.697694 -58.7491 -4.72479 2.94514 -125.089 31.3491 52.3128 -2.2756e-007 -3.46618e-008 7.9706e-007 112.593 85.7637 -103.773 6.31465e-007 -1.90741e-006 3.00222 -8.02887 -4.95146 -0.697696 176.341 -2.40903 0.843529 180 7.01521e-015 178.817 178.605 8.61708 179.678 -1.24761e-006 -4.95997e-006 0.186311 -20.4936 70.0552 21.4086 8.14662 25.4004 -3.26501 -175.551 -2.40735 1.11106 4.54188e-006 -4.6773e-006 -1.18866 -2.24689 -8.89924 0.154075 -4.09352e-007 -6.66686e-007 -0.181414 20.6038 70.113 -21.492 -8.15604 25.521 3.09694 
53.2003 100.571 12.6493 0.123907 -3.73603 1.17074 0.2683 -2.45051 -0.135346 0.518526 -0.898943 -0.307728 0.522227 0.746083 -0.315266 -1.3325 16.3556 2.94869 -13.9553 -6.66997 0.269441 68.0596 -0.755759 -1.53511 119.046 27.2894 -60.4249 -2.4541e-005 1.36657e-006 -1.7361e-006 -113.755 81.2831 102.644 1.52616e-005 3.06122e-006 -3 8.0289 -4.95145 0.697694 -58.729 -4.81479 2.99923 -125.079 31.3508 52.5464 -2.2756e-007 -3.46618e-008 7.9706e-007 113.502 85.6833 -104.607 6.31465e-007 -1.90741e-006 3.00222 -8.02887 -4.95146 -0.697696 176.316 -2.45269 0.887025 180 7.01521e-015 178.817 178.544 8.54379 179.685 -1.24761e-006 -4.95997e-006 0.181815 -20.445 70.0038 21.3565 8.14683 25.4033 -3.26142 -175.553 -2.43312 1.11531 4.54188e-006 -4.6773e-006 -1.18869 -2.24137 -8.87356 0.154262 -4.09352e-007 -6.66686e-007 -0.181668 20.5891 70.0993 -21.4764 -8.15608 25.5217 3.09572 
53.2028 100.57 12.6516 0.123034 -3.74831 1.1733 0.270074 -2.44269 -0.134929 0.521553 -0.883312 -0.308908 0.525278 0.761713 -0.316799 -1.42968 16.2752 2.97328 -13.8707 -6.7029 0.278483 67.9935 -0.744907 -1.52283 118.978 27.2243 -60.1503 -2.4541e-005 1.36657e-006 -1.7361e-006 -114.593 81.1555 103.359 1.52616e-005 3.06122e-006 -3 8.0289 -4.95145 0.697694 -58.708 -4.90067 3.05077 -125.065 31.349 52.7576 -2.2756e-007 -3.46618e-008 7.9706e-007 114.326 85.6062 -105.359 6.31465e-007 -1.90741e-006 3.00222 -8.02887 -4.95146 -0.697696 176.292 -2.49474 0.927898 180 7.01521e-015 178.817 178.486 8.47385 179.693 -1.24761e-006 -4.95997e-006 0.17757 -20.3992 69.9551 21.3073 8.14702 25.4062 -3.25794 -175.554 -2.45793 1.11911 4.54188e-006 -4.6773e-006 -1.18872 -2.23613 -8.84898 0.154451 -4.09352e-007 -6.66686e-007 -0.181915 20.5752 70.0863 -21.4617 -8.15612 25.5223 3.09462 
